PathFileType	4	(X/Y/Z)	./resultDataOpenSim/trcMotMarkerGrf/sub06/qtm-12-07.trc
DataRate	CameraRate	NumFrames	NumMarkers	Units	OrigDataRate	OrigDataStartFrame	OrigNumFrames
250.000000	250.000000	7	24	m	250.000000	63	502
Frame#	Time	L.Toe.Tip			R.Toe.Tip			L.Ankle.Lat			R.Ankle.Lat			L.Ankle.Med			R.Ankle.Med			L.Heel			R.Heel			L.Knee.Lat			R.Knee.Lat			L.Knee.Med			R.Knee.Med			L.Thigh.Upper			R.Thigh.Upper			L.ASIS			R.ASIS			V.Sacral			L.Acromium			R.Acromium			C7			L.Elbow			R.Elbow			L.Wrist.Lat			R.Wrist.Lat
		X1	Y1	Z1	X2	Y2	Z2	X3	Y3	Z3	X4	Y4	Z4	X5	Y5	Z5	X6	Y6	Z6	X7	Y7	Z7	X8	Y8	Z8	X9	Y9	Z9	X10	Y10	Z10	X11	Y11	Z11	X12	Y12	Z12	X13	Y13	Z13	X14	Y14	Z14	X15	Y15	Z15	X16	Y16	Z16	X17	Y17	Z17	X18	Y18	Z18	X19	Y19	Z19	X20	Y20	Z20	X21	Y21	Z21	X22	Y22	Z22	X23	Y23	Z23	X24	Y24	Z24

63	0.248	-1.3338791	0.082927795	-0.093393154	-0.8114064	0.035922231	0.077881687	-1.339352	0.21397707	-0.12115347	-0.94575077	0.061408387	0.098822209	-1.317329	0.21790111	-0.040539837	-0.92700365	0.08011984	0.012104725	-1.3863638	0.26849645	-0.069961687	-1.0012294	0.038075917	0.036576436	-1.0054072	0.38913648	-0.15593551	-0.88450525	0.44410701	0.12568446	-0.9998326	0.37788009	-0.033879482	-0.92357749	0.43241059	0.0033737019	-1.0392793	0.78133336	-0.1540024	-1.0065817	0.8013267	0.18638745	-0.95971128	0.83146915	-0.11962125	-0.92517334	0.85174198	0.12161759	-1.1241396	0.91983148	0.027710466	-0.98248281	1.3272546	-0.16804405	-0.99164684	1.305899	0.1951249	-1.0627342	1.3607991	0.0129669	-1.0237339	1.0062985	-0.23319929	-1.1243049	1.0185912	0.25025319	-0.85124153	0.83007471	-0.21223297	-1.0388066	0.79651457	0.29539823
64	0.252	-1.318241	0.083214859	-0.093201229	-0.81150829	0.03593703	0.077987735	-1.3256701	0.21408557	-0.12035083	-0.94597258	0.061403218	0.09890434	-1.3036496	0.21820339	-0.039831927	-0.92707526	0.080211795	0.012235142	-1.3734852	0.2678857	-0.068712517	-1.0012723	0.03812535	0.036584775	-0.9932412	0.39118686	-0.15605678	-0.88306076	0.44402263	0.12603117	-0.98715378	0.38002918	-0.033725473	-0.92165769	0.43265612	0.0035706276	-1.0325479	0.78307915	-0.15365495	-1.0001469	0.80255112	0.18728105	-0.95351235	0.83320367	-0.11917643	-0.91958368	0.85292825	0.12261638	-1.1185942	0.92152526	0.026772594	-0.97700415	1.3288032	-0.16794895	-0.98553748	1.3076924	0.19521753	-1.0567865	1.3623359	0.013130053	-1.0192985	1.0081235	-0.23227351	-1.1163525	1.0195815	0.25120851	-0.84764866	0.83072432	-0.21248042	-1.0284859	0.79839307	0.29642764
65	0.256	-1.3023346	0.083343342	-0.093132343	-0.81159623	0.035950437	0.078079999	-1.3118575	0.21396224	-0.11949349	-0.94615992	0.061392094	0.098977329	-1.290085	0.21828395	-0.039068336	-0.92714049	0.080303787	0.012362697	-1.3604372	0.26700664	-0.067472212	-1.0013086	0.038177005	0.036595352	-0.98115719	0.39333872	-0.15615197	-0.88176429	0.44395462	0.12639128	-0.97430858	0.38223463	-0.033621103	-0.91980173	0.43291625	0.0037073029	-1.0257821	0.7848711	-0.15334367	-0.99372827	0.80378788	0.18816553	-0.9471509	0.8350445	-0.11868805	-0.91402921	0.85413193	0.12363257	-1.1127861	0.92320791	0.026321419	-0.9715165	1.330378	-0.16784373	-0.97941594	1.3095082	0.19529156	-1.0508495	1.3638642	0.013280241	-1.0149164	1.0100034	-0.23136518	-1.108438	1.0206159	0.25217947	-0.84430051	0.83141344	-0.21283205	-1.0179522	0.80039714	0.29742497
66	0.26	-1.2861075	0.083339959	-0.09319104	-0.81167426	0.035964736	0.078157343	-1.2979917	0.21361282	-0.1186287	-0.94630798	0.06138474	0.09904171	-1.2765824	0.21816303	-0.038248213	-0.92719185	0.08039675	0.012480762	-1.3472164	0.26587433	-0.066446376	-1.0013405	0.038229951	0.036607362	-0.96912342	0.39558129	-0.15621313	-0.88066969	0.44391872	0.12680396	-0.96150654	0.38447502	-0.033558207	-0.91807182	0.43317925	0.0038095907	-1.0190173	0.78671958	-0.15307915	-0.98842134	0.80484315	0.188722	-0.94052515	0.83699084	-0.11812358	-0.90849367	0.85534604	0.12465704	-1.1067663	0.92478991	0.026387525	-0.9660226	1.33197	-0.16772875	-0.97322717	1.3113424	0.19534556	-1.0449197	1.3653765	0.013422496	-1.0106023	1.0118872	-0.23061357	-1.1005646	1.0216855	0.25316765	-0.84124287	0.8321352	-0.2133147	-1.0073153	0.80249594	0.29838943
67	0.264	-1.2696572	0.083196745	-0.093240078	-0.81174798	0.035980558	0.078220437	-1.2841103	0.21304401	-0.11779711	-0.94640924	0.061393085	0.099099965	-1.2629526	0.2178486	-0.037423574	-0.92723064	0.080494991	0.01258583	-1.3339117	0.26451772	-0.065600038	-1.0013709	0.038284496	0.03662091	-0.95712635	0.39790572	-0.15624281	-0.87974589	0.44392982	0.12727959	-0.94878886	0.38676047	-0.033518037	-0.91654664	0.43343355	0.0038969019	-1.0122702	0.78862049	-0.15286024	-0.98464827	0.80557906	0.18882478	-0.93376129	0.83898766	-0.11752987	-0.90296703	0.85657012	0.12568146	-1.1006519	0.9262096	0.026681323	-0.96052421	1.333566	-0.16760868	-0.9669226	1.3131977	0.19537908	-1.0389953	1.3668714	0.013565703	-1.0063193	1.0137399	-0.23006473	-1.0927066	1.0227807	0.25417916	-0.83839556	0.83289248	-0.21390285	-0.99664254	0.80466268	0.29931777
68	0.268	-1.2531982	0.082870967	-0.093037969	-0.81182145	0.035995523	0.078272057	-1.2701492	0.21226766	-0.11700922	-0.94646134	0.061424931	0.099157379	-1.2490285	0.21733401	-0.036646722	-0.92726831	0.080604421	0.012679314	-1.3206055	0.26294166	-0.064719875	-1.0014047	0.038340299	0.036637496	-0.94516482	0.40030493	-0.15624965	-0.87883646	0.44397377	0.12776216	-0.93612643	0.3891245	-0.033473138	-0.91529509	0.43365942	0.0039516927	-1.0055398	0.79056102	-0.15268197	-0.98130025	0.8061374	0.18881474	-0.92707268	0.84097261	-0.11697985	-0.89743487	0.85781231	0.12670382	-1.0944876	0.92749017	0.026938013	-0.95501884	1.3351549	-0.16748964	-0.96050628	1.3150723	0.19539122	-1.0330774	1.3683533	0.013718233	-1.0019866	1.0155491	-0.22963213	-1.0848094	1.0238883	0.25523235	-0.83560906	0.83369106	-0.21453733	-0.98594252	0.80688097	0.30020481
69	0.272	-1.2368119	0.082344463	-0.092509941	-0.81189567	0.036006714	0.078314674	-1.256024	0.21130197	-0.11625955	-0.94648139	0.061476732	0.099216871	-1.2348099	0.21661577	-0.035928709	-0.92732175	0.080727934	0.012765167	-1.3072923	0.26110925	-0.063713535	-1.0014483	0.038392112	0.036656612	-0.93324235	0.40277009	-0.15623061	-0.87781404	0.44401392	0.1281722	-0.92352355	0.39158767	-0.033408828	-0.91424577	0.43384822	0.0039647768	-0.99881202	0.79252578	-0.15253526	-0.97696424	0.8067951	0.18913894	-0.92053391	0.84292257	-0.11649495	-0.89188301	0.85908385	0.12772447	-1.0882305	0.92871236	0.027100571	-0.94949851	1.3367312	-0.16737548	-0.95405536	1.3169431	0.19538293	-1.0271656	1.3698223	0.013884118	-0.99756532	1.017334	-0.22916684	-1.0768094	1.0249924	0.25635781	-0.83276439	0.83453075	-0.21516846	-0.97520467	0.80913864	0.30104294
